<svg xmlns="http://www.w3.org/2000/svg" width="40" height="40" fill="none" xmlns:v="https://vecta.io/nano"><g stroke="#d9d9d9" stroke-width="3"><path d="M19.375 5A14.38 14.38 0 0 0 5 19.375 14.38 14.38 0 0 0 19.375 33.75 14.38 14.38 0 0 0 33.75 19.375 14.38 14.38 0 0 0 19.375 5z" stroke-miterlimit="10"/><g stroke-linecap="round"><path d="M17.188 17.188h2.5v9.063" stroke-linejoin="round"/><path d="M16.25 26.563h6.875" stroke-miterlimit="10"/></g></g><path d="M19.375 10.156a2.03 2.03 0 0 0-1.877 1.254 2.03 2.03 0 0 0 .44 2.214 2.03 2.03 0 0 0 2.214.44 2.03 2.03 0 0 0 1.254-1.877 2.03 2.03 0 0 0-2.031-2.031z" fill="#d9d9d9"/></svg>