<svg xmlns="http://www.w3.org/2000/svg" width="30" height="30" fill="none" xmlns:v="https://vecta.io/nano"><g stroke="#d9d9d9" stroke-width="3" stroke-linejoin="round"><path d="M21.563 24.367V4.219a1.41 1.41 0 0 0-1.406-1.406H4.219a1.41 1.41 0 0 0-1.406 1.406v20.625a2.35 2.35 0 0 0 2.344 2.344h19.219"/><path d="M24.375 27.188a2.81 2.81 0 0 1-2.812-2.812V7.5h4.219c.373 0 .731.148.994.412s.412.621.412.994v15.469a2.81 2.81 0 0 1-2.812 2.813z"/><path d="M14.063 7.5h3.75m-3.75 3.75h3.75M6.563 15h11.25m-11.25 3.75h11.25M6.563 22.5h11.25" stroke-linecap="round"/></g><path d="M10.313 12.188h-3.75a.94.94 0 0 1-.937-.937V7.5c0-.249.099-.487.275-.663s.414-.275.663-.275h3.75a.94.94 0 0 1 .938.938v3.75a.94.94 0 0 1-.937.938z" fill="#d9d9d9"/></svg>