<svg xmlns="http://www.w3.org/2000/svg" width="30" height="30" fill="none" xmlns:v="https://vecta.io/nano"><path d="M15.369 11.268a3.75 3.75 0 0 0-3.758 2.128 3.75 3.75 0 0 0 .738 4.256 3.75 3.75 0 0 0 4.255.738 3.75 3.75 0 0 0 2.128-3.758 3.76 3.76 0 0 0-3.363-3.363zM24.398 15c-.002.408-.032.815-.09 1.218l2.649 2.078c.115.096.193.229.219.377s-.001.3-.076.429l-2.506 4.336c-.076.128-.195.226-.336.275s-.294.047-.434-.006l-2.631-1.059c-.145-.058-.302-.079-.457-.061s-.303.074-.431.163a9.64 9.64 0 0 1-1.262.735c-.138.067-.257.167-.347.291s-.148.268-.169.42l-.394 2.806a.65.65 0 0 1-.626.537h-5.012a.65.65 0 0 1-.626-.52l-.394-2.802a.94.94 0 0 0-.527-.716 9.09 9.09 0 0 1-1.257-.737.94.94 0 0 0-.885-.1l-2.63 1.059c-.139.053-.293.055-.434.006s-.26-.146-.336-.274l-2.506-4.336c-.075-.13-.102-.282-.076-.429a.63.63 0 0 1 .22-.377l2.239-1.758a.94.94 0 0 0 .352-.825l-.034-.732.034-.724c.013-.155-.013-.311-.075-.453a.94.94 0 0 0-.281-.364L3.038 11.7c-.114-.096-.19-.229-.215-.375s.002-.297.076-.426l2.506-4.336c.076-.128.195-.226.336-.275s.295-.047.434.006l2.631 1.059c.145.058.302.079.457.061s.303-.074.432-.163a9.64 9.64 0 0 1 1.262-.735c.138-.067.257-.167.347-.291s.148-.268.169-.42l.394-2.806a.65.65 0 0 1 .626-.537h5.012a.65.65 0 0 1 .626.52l.394 2.802a.94.94 0 0 0 .527.716 9.09 9.09 0 0 1 1.257.737.94.94 0 0 0 .43.162c.154.017.311-.004.455-.062l2.63-1.059c.139-.053.293-.055.434-.006s.26.146.336.275l2.506 4.336a.63.63 0 0 1 .076.429c-.026.148-.104.281-.22.377l-2.239 1.758a.94.94 0 0 0-.354.825l.032.731z" stroke="#d9d9d9" stroke-width="3" stroke-linejoin="round"/></svg>