<svg width="25" height="26" viewBox="0 0 25 26" fill="none" xmlns="http://www.w3.org/2000/svg">
<path d="M10.7954 3.625C9.27835 3.625 7.79535 4.07486 6.53396 4.9177C5.27257 5.76053 4.28943 6.95849 3.70888 8.36007C3.12832 9.76166 2.97642 11.3039 3.27239 12.7918C3.56835 14.2797 4.29889 15.6465 5.37161 16.7192C6.44434 17.7919 7.81108 18.5225 9.29899 18.8184C10.7869 19.1144 12.3292 18.9625 13.7308 18.3819C15.1323 17.8014 16.3303 16.8183 17.1731 15.5569C18.016 14.2955 18.4658 12.8125 18.4658 11.2954C18.4657 9.26113 17.6575 7.31021 16.2191 5.87175C14.7806 4.4333 12.8297 3.62513 10.7954 3.625Z" stroke="#D9D9D9" stroke-width="3" stroke-miterlimit="10"/>
<path d="M16.5181 17.0181L21.875 22.375" stroke="#D9D9D9" stroke-width="3" stroke-miterlimit="10" stroke-linecap="round"/>
</svg>
